<?xml version="1.0" standalone="no"?>
<!DOCTYPE svg PUBLIC "-//W3C//DTD SVG 20010904//EN"
 "http://www.w3.org/TR/2001/REC-SVG-20010904/DTD/svg10.dtd">
<svg version="1.0" xmlns="http://www.w3.org/2000/svg"
 width="1063.000000pt" height="1063.000000pt" viewBox="0 0 1063.000000 1063.000000"
 preserveAspectRatio="xMidYMid meet">
<metadata>
Created by potrace 1.14, written by Peter Selinger 2001-2017
</metadata>
<g transform="translate(0.000000,1063.000000) scale(0.100000,-0.100000)"
fill="#000000" stroke="none">
<path d="M4843 10215 c-144 -39 -231 -127 -269 -270 -17 -64 -12 -229 10 -310
28 -103 84 -236 140 -335 l54 -95 -25 -40 c-185 -305 -240 -606 -145 -790 70
-136 218 -205 410 -192 77 6 221 40 277 66 11 5 58 28 105 49 47 22 108 54
136 70 l50 30 50 -30 c27 -17 91 -51 142 -75 165 -78 295 -112 427 -111 132 2
214 31 292 106 76 73 111 168 111 300 0 166 -64 361 -186 569 l-30 51 20 28
c25 38 94 174 123 247 150 368 66 660 -210 733 -46 13 -196 13 -267 1 -92 -16
-323 -112 -433 -180 l-39 -25 -51 30 c-259 152 -523 218 -692 173z m217 -200
c79 -10 330 -112 330 -133 0 -5 -15 -19 -32 -32 -105 -77 -391 -366 -431 -436
-15 -27 -28 -13 -67 69 -88 186 -115 358 -72 449 40 81 117 105 272 83z m1254
-12 c17 -9 39 -25 48 -36 36 -41 51 -134 36 -217 -5 -25 -11 -56 -13 -70 -7
-37 -58 -166 -93 -234 -22 -44 -32 -55 -38 -44 -37 64 -310 343 -411 422 -35
27 -63 53 -63 57 0 10 146 81 215 104 122 42 258 49 319 18z m-656 -295 c105
-83 121 -97 227 -203 151 -152 261 -286 252 -308 -3 -7 -36 -50 -74 -97 -92
-116 -258 -280 -376 -374 l-97 -78 -28 18 c-120 78 -353 302 -466 447 -37 48
-66 93 -63 100 20 51 278 330 397 429 67 55 150 118 156 118 2 0 35 -24 72
-52z m-683 -773 c93 -113 342 -354 401 -388 8 -4 14 -12 14 -17 0 -8 -157 -90
-172 -90 -4 0 -19 -5 -35 -12 -36 -14 -36 -14 -118 -31 -86 -17 -154 -13 -210
12 -111 49 -117 239 -17 467 54 122 66 144 73 136 4 -4 32 -38 64 -77z m1319
27 c28 -55 74 -167 81 -197 36 -151 37 -224 4 -292 -46 -95 -190 -113 -384
-48 -65 22 -215 93 -215 103 0 4 28 30 62 57 99 79 257 236 338 334 41 50 78
91 82 91 4 0 18 -21 32 -48z"/>
<path d="M5505 9458 c-190 -69 -246 -298 -107 -437 108 -108 265 -107 374 0
107 106 100 286 -15 384 -66 57 -177 80 -252 53z"/>
<path d="M8377 7594 c-1 -1 -36 -5 -77 -8 -41 -4 -82 -9 -90 -11 -8 -2 -33 -6
-55 -9 -22 -3 -64 -10 -93 -16 -30 -7 -59 -13 -65 -14 -130 -26 -348 -120
-482 -207 -107 -69 -165 -117 -260 -214 -253 -257 -400 -562 -432 -895 -12
-126 -6 -365 12 -450 3 -14 8 -41 11 -60 10 -56 43 -187 56 -217 6 -16 12 -35
14 -43 7 -37 98 -204 151 -277 148 -206 273 -303 574 -447 256 -122 521 -214
794 -275 374 -84 448 -108 582 -191 149 -92 200 -176 190 -318 -17 -244 -144
-393 -387 -456 -89 -24 -301 -32 -371 -16 -90 22 -204 75 -291 136 -97 68 -74
48 -235 204 -70 69 -143 136 -161 150 -19 14 -39 30 -46 36 -24 22 -151 100
-191 116 -89 37 -159 40 -251 12 -32 -9 -62 -18 -65 -18 -3 -1 -33 -18 -66
-38 -64 -40 -178 -146 -254 -238 -47 -56 -134 -181 -132 -190 0 -3 -3 -16 -8
-29 -42 -108 -27 -213 48 -349 30 -54 123 -187 142 -202 3 -3 25 -30 48 -60
65 -86 145 -161 298 -278 6 -5 60 -41 120 -81 234 -154 468 -245 763 -297 132
-23 220 -29 417 -29 184 1 241 5 355 25 36 6 74 13 85 15 211 36 545 178 770
326 117 78 270 220 347 324 239 322 338 708 305 1180 -23 332 -155 639 -367
856 -121 123 -248 195 -525 295 -173 62 -501 155 -670 189 -16 3 -39 8 -50 10
-11 2 -74 14 -139 25 -256 46 -434 119 -538 221 -84 83 -102 129 -103 259 0
93 3 111 26 160 15 30 42 70 60 89 40 40 132 101 153 101 8 0 17 4 20 9 5 8
55 23 126 38 14 3 79 6 145 6 135 0 225 -18 316 -63 58 -28 69 -37 154 -116
93 -86 239 -166 355 -196 146 -38 294 15 435 158 77 77 94 99 169 214 163 249
183 373 81 520 -60 87 -120 147 -245 244 -108 84 -191 138 -270 174 -110 50
-406 144 -525 167 -91 17 -217 34 -300 41 -67 6 -373 12 -378 8z"/>
<path d="M2658 7555 c-2 -2 -34 -6 -73 -9 -59 -6 -221 -32 -314 -51 -98 -19
-346 -100 -476 -155 -55 -23 -336 -163 -380 -190 -27 -16 -57 -33 -65 -37 -15
-6 -181 -117 -210 -140 -165 -128 -341 -292 -425 -398 -22 -27 -43 -52 -46
-55 -9 -8 -123 -181 -152 -231 -121 -211 -220 -463 -276 -699 -18 -80 -23
-109 -37 -206 -3 -22 -7 -50 -9 -64 -23 -149 -23 -540 0 -710 13 -101 16 -119
40 -240 3 -14 7 -36 10 -50 12 -64 70 -255 107 -350 56 -145 174 -372 259
-499 40 -58 74 -108 78 -111 3 -3 19 -23 36 -45 52 -71 273 -286 375 -365 24
-19 53 -43 65 -53 43 -39 305 -207 400 -256 175 -92 462 -212 544 -227 14 -3
28 -7 32 -9 9 -6 222 -52 279 -60 180 -26 274 -32 455 -29 110 1 216 5 235 8
182 30 300 58 481 115 264 83 333 113 539 236 191 115 238 148 318 227 178
176 163 365 -57 697 -97 148 -222 276 -311 319 -106 52 -171 47 -310 -20 -36
-17 -67 -32 -70 -32 -11 -2 -89 -52 -150 -97 -86 -62 -147 -92 -273 -133 -176
-58 -310 -79 -492 -78 -105 0 -127 2 -263 27 -246 46 -557 210 -732 387 -198
201 -332 486 -366 778 -14 119 -8 352 11 450 32 165 76 292 143 416 104 190
217 316 387 429 194 129 367 204 578 250 94 20 130 23 280 20 171 -2 201 -5
307 -26 128 -26 300 -94 367 -145 17 -13 36 -24 41 -24 6 0 12 -4 14 -9 5 -14
141 -99 210 -130 194 -90 309 -61 497 122 143 140 283 357 306 473 33 175 -7
304 -135 422 -30 28 -162 117 -258 173 -227 133 -309 172 -512 239 -125 41
-362 106 -423 115 -169 26 -256 33 -404 33 -95 -1 -174 -2 -175 -3z"/>
<path d="M5423 7495 c-217 -39 -294 -99 -367 -285 l-21 -55 -2 -2150 c-1
-1368 2 -2175 8 -2220 34 -242 137 -343 399 -390 101 -19 379 -13 481 9 97 21
184 63 232 112 36 37 87 143 103 214 12 52 15 4344 3 4405 -5 28 -12 64 -15
80 -22 126 -146 231 -322 272 -90 20 -401 26 -499 8z"/>
<path d="M2411 2016 c-29 -7 -52 -21 -65 -39 -21 -28 -21 -37 -21 -545 -1
-559 4 -629 52 -704 39 -64 121 -93 275 -97 102 -3 123 4 143 46 23 47 23 169
1 211 -17 32 -31 39 -100 46 -21 2 -42 10 -47 17 -5 8 -9 46 -9 84 0 39 -1
262 -3 497 l-2 426 -24 26 c-35 38 -122 52 -200 32z"/>
<path d="M1645 1954 c-166 -39 -310 -118 -413 -226 -51 -52 -116 -180 -138
-268 -50 -197 1 -440 123 -588 84 -103 230 -197 368 -237 125 -36 298 -23 430
32 90 38 183 108 186 140 1 7 2 19 3 26 3 18 -22 77 -51 120 -28 41 -73 77
-101 82 -18 2 -78 -25 -122 -55 -114 -79 -327 -51 -438 58 -103 102 -127 283
-57 422 61 121 230 201 377 178 46 -6 85 -23 178 -74 56 -31 82 -26 137 28 46
45 73 94 80 143 6 43 -43 94 -137 144 -105 55 -196 78 -310 79 -52 0 -104 -2
-115 -4z"/>
<path d="M4280 1589 c-88 -11 -107 -16 -160 -45 -85 -46 -125 -118 -129 -230
-2 -73 28 -172 66 -218 51 -63 170 -116 325 -146 66 -13 84 -28 64 -55 -15
-21 -32 -25 -100 -26 -38 0 -69 9 -131 40 -144 71 -169 65 -231 -52 -17 -33
-24 -61 -22 -85 3 -31 10 -42 49 -68 26 -17 86 -44 135 -59 184 -60 430 -27
532 72 7 6 24 36 39 65 23 46 27 65 27 143 1 79 -3 97 -27 145 -17 33 -44 66
-66 82 -47 33 -163 73 -256 88 -108 17 -156 63 -97 94 41 21 146 14 208 -15
74 -33 101 -30 145 19 32 37 40 55 55 122 17 79 -228 154 -426 129z"/>
<path d="M5119 1584 c-163 -30 -240 -113 -245 -263 -5 -137 45 -236 146 -290
69 -37 132 -60 180 -67 109 -14 157 -42 127 -71 -40 -40 -147 -30 -252 25
-110 58 -149 50 -200 -42 -46 -83 -47 -126 -2 -159 123 -91 347 -127 516 -83
171 44 231 118 237 291 3 86 2 93 -29 147 -39 69 -67 91 -151 123 -67 25 -92
31 -161 41 -65 9 -104 24 -120 47 -21 29 -19 34 13 51 37 19 144 14 197 -9
114 -49 138 -40 192 73 42 89 19 121 -123 167 -93 31 -223 38 -325 19z"/>
<path d="M6822 1572 c-100 -37 -188 -103 -252 -192 -93 -128 -108 -329 -38
-477 118 -251 424 -358 675 -236 81 40 182 141 221 223 89 190 53 417 -89 557
-143 141 -340 188 -517 125z m252 -315 c65 -36 91 -95 80 -180 -7 -59 -38 -97
-101 -127 -58 -27 -119 -22 -175 15 -50 33 -72 77 -70 142 3 108 68 171 177
172 34 0 62 -6 89 -22z"/>
<path d="M7975 1593 c-60 -13 -126 -40 -171 -68 -202 -129 -280 -339 -213
-575 14 -50 38 -92 89 -153 120 -145 302 -209 487 -171 180 37 335 188 377
368 15 62 13 184 -4 246 -43 161 -201 310 -370 349 -45 10 -157 13 -195 4z
m182 -336 c53 -28 77 -71 77 -141 0 -76 -21 -117 -76 -153 -83 -55 -210 -26
-254 58 -21 41 -21 126 -1 164 47 92 157 123 254 72z"/>
<path d="M6216 1583 c-30 -8 -137 -74 -143 -89 -3 -8 -9 -11 -14 -8 -5 3 -7 9
-4 14 3 5 -8 24 -24 42 -29 33 -30 33 -119 33 -102 0 -134 -12 -153 -58 -19
-45 -18 -796 0 -830 18 -33 54 -48 126 -54 83 -7 136 9 159 48 17 28 19 55 18
265 0 197 2 238 16 266 31 62 115 84 202 53 83 -29 135 0 171 94 40 107 12
189 -74 212 -45 12 -133 18 -161 12z"/>
<path d="M3237 1569 c-67 -16 -141 -61 -207 -128 -119 -120 -162 -255 -136
-426 21 -135 138 -284 275 -348 109 -51 255 -40 324 26 l35 32 9 -26 c16 -41
51 -58 128 -63 89 -5 133 9 158 52 18 30 19 57 19 411 0 477 2 470 -140 477
-93 4 -138 -13 -163 -63 l-16 -33 -19 25 c-39 52 -175 85 -267 64z m184 -319
c114 -59 125 -206 20 -276 -36 -24 -48 -26 -97 -21 -81 8 -130 56 -140 137
-14 116 117 212 217 160z"/>
<path d="M8733 1560 c-26 -13 -45 -32 -51 -48 -5 -15 -9 -196 -9 -406 -1 -421
1 -436 59 -461 41 -17 155 -17 196 1 56 23 62 54 62 299 0 232 6 267 51 299
55 38 140 6 159 -62 5 -20 10 -132 10 -249 0 -116 4 -223 10 -237 16 -43 55
-60 139 -63 87 -2 131 14 151 55 10 19 14 91 15 247 2 244 6 274 38 302 29 26
97 30 131 8 43 -28 50 -72 52 -300 1 -116 3 -218 3 -227 1 -10 14 -32 29 -49
26 -30 33 -32 106 -35 100 -5 141 11 162 63 14 32 15 78 12 308 -5 246 -7 276
-27 334 -38 108 -86 167 -170 209 -46 22 -69 27 -131 27 -92 0 -152 -26 -223
-99 l-48 -49 -16 23 c-53 76 -128 118 -225 127 -77 8 -138 -16 -195 -75 -42
-44 -43 -45 -43 -19 0 15 -12 40 -27 57 -25 27 -35 31 -103 36 -64 4 -81 2
-117 -16z"/>
</g>
</svg>
